<svg width="20" height="20" viewBox="0 0 20 20" fill="none" xmlns="http://www.w3.org/2000/svg">
<path d="M4.8226 2.22476C4.79478 0.961881 3.89169 0 2.42521 0C0.958734 0 0 0.961881 0 2.22476C0 3.46147 0.930397 4.45105 2.36957 4.45105H2.39696C3.89169 4.45105 4.8226 3.46147 4.8226 2.22476Z" fill="#74D444"/>
<path d="M4.5403 6.20902H0.253517V19.089H4.5403V6.20902Z" fill="#74D444"/>
<path d="M15.0643 5.90662C17.8852 5.90662 20 7.74788 20 11.7041L19.9998 19.0891H15.7132V12.1982C15.7132 10.4674 15.0929 9.28636 13.5411 9.28636C12.3568 9.28636 11.6513 10.0826 11.3415 10.8516C11.2282 11.1272 11.2004 11.5112 11.2004 11.8961V19.0894H6.91306C6.91306 19.0894 6.96956 7.418 6.91306 6.2094H11.2004V8.03375C11.7693 7.15675 12.7883 5.90662 15.0643 5.90662Z" fill="#74D444"/>
</svg>
