<svg width="24" height="21" viewBox="0 0 24 21" fill="none" xmlns="http://www.w3.org/2000/svg">
<path d="M22.7891 11.5765H1.17987C0.527755 11.5765 0 11.0488 0 10.3967C0 9.74458 0.527783 9.2168 1.17987 9.2168H22.8201C23.4722 9.2168 24 9.74458 24 10.3967C24 11.0488 23.4722 11.5765 22.7891 11.5765Z" fill="#74D444"/>
<path d="M22.7891 2.35974H1.17987C0.527755 2.35974 0 1.83195 0 1.17987C0 0.527784 0.527783 0 1.17987 0H22.8201C23.4722 0 24 0.527784 24 1.17987C24 1.83195 23.4722 2.35974 22.7891 2.35974Z" fill="#74D444"/>
<path d="M22.7891 20.7933H1.17987C0.527755 20.7933 0 20.2655 0 19.6135C0 18.9614 0.527783 18.4336 1.17987 18.4336H22.8201C23.4722 18.4336 24 18.9614 24 19.6135C24 20.2655 23.4722 20.7933 22.7891 20.7933Z" fill="#74D444"/>
</svg>
