<svg width="21" height="21" viewBox="0 0 21 21" fill="none" xmlns="http://www.w3.org/2000/svg">
<path d="M13.1687 4.375C14.0233 4.54174 14.8088 4.95973 15.4245 5.57544C16.0402 6.19116 16.4582 6.97661 16.6249 7.83125M13.1687 0.875C14.9443 1.07226 16.6001 1.8674 17.8642 3.12988C19.1282 4.39236 19.9254 6.04713 20.1249 7.8225M19.2499 14.805V17.43C19.2509 17.6737 19.201 17.9149 19.1034 18.1382C19.0058 18.3615 18.8626 18.5619 18.683 18.7266C18.5034 18.8914 18.2914 19.0168 18.0606 19.0949C17.8297 19.1729 17.5851 19.2019 17.3424 19.18C14.6499 18.8874 12.0636 17.9674 9.79119 16.4938C7.67704 15.1503 5.88461 13.3579 4.54119 11.2438C3.06242 8.96105 2.14215 6.36212 1.85494 3.6575C1.83308 3.41553 1.86183 3.17167 1.93938 2.94142C2.01693 2.71118 2.14157 2.4996 2.30536 2.32017C2.46916 2.14073 2.66852 1.99737 2.89076 1.89921C3.113 1.80104 3.35324 1.75023 3.59619 1.75H6.22119C6.64583 1.74582 7.05751 1.89619 7.37948 2.17309C7.70146 2.44999 7.91176 2.83452 7.97119 3.255C8.08199 4.09506 8.28746 4.91989 8.58369 5.71375C8.70142 6.02693 8.7269 6.3673 8.65711 6.69452C8.58732 7.02174 8.4252 7.3221 8.18994 7.56L7.07869 8.67125C8.3243 10.8619 10.1381 12.6756 12.3287 13.9212L13.4399 12.81C13.6778 12.5747 13.9782 12.4126 14.3054 12.3428C14.6326 12.273 14.973 12.2985 15.2862 12.4162C16.0801 12.7125 16.9049 12.918 17.7449 13.0288C18.17 13.0887 18.5582 13.3028 18.8357 13.6303C19.1131 13.9578 19.2606 14.3759 19.2499 14.805Z" stroke="#74D444" stroke-width="1.75" stroke-linecap="round" stroke-linejoin="round"/>
</svg>
